# xmcd CD database file
#
# Track frame offsets:
#	150
#	15797
#	35005
#	51052
#	66537
#	79477
#	95942
#	113992
#	125835
#	139835
#	154040
#	172292
#	184842
#
# Disc length: 2650 seconds
#
# Revision: 1
# Processed by: cddbd v1.5.1PL0 Copyright (c) Steve Scherf et al.
# Submitted via: CDex 1.51
#
DISCID=c20a580d
DTITLE=Righteous Brothers - The Original Albums 1974-1976 [CD 1)
DYEAR=1993
DGENRE=Jazz
TTITLE0=Rock And Roll Heaven
TTITLE1=Is It So Wrong
TTITLE2=Love Is Not A Dirty Word
TTITLE3=Sing Lady
TTITLE4=Try Again
TTITLE5=And I Thought You Loved Me
TTITLE6=Never Say I Love You
TTITLE7=Let Me Make The Music (prev. unreleased) (Bonustrack)
TTITLE8=You Turn Me Around
TTITLE9=Youngblood
TTITLE10=Together Again
TTITLE11=Just Another Fool
TTITLE12=Happy Song (prev. unreleased) (Bonustrack)
EXTD=YEAR: 1993
EXTT0=
EXTT1=
EXTT2=
EXTT3=
EXTT4=
EXTT5=
EXTT6=
EXTT7=
EXTT8=
EXTT9=
EXTT10=
EXTT11=
EXTT12=
PLAYORDER=
